<svg width="92" height="92" viewBox="0 0 92 92" fill="none" xmlns="http://www.w3.org/2000/svg">
<path d="M5.40294 45.7177C5.42536 36.2529 8.71228 27.0862 14.7082 19.7667C20.7041 12.4472 29.0413 7.4238 38.3106 5.54554C47.58 3.66727 57.2132 5.04933 65.5819 9.45812C73.9507 13.8669 80.5419 21.032 84.2415 29.7426C88.2775 39.7416 88.2228 50.9279 84.089 60.8869C79.9553 70.8459 72.0742 78.7787 62.1469 82.973C52.2196 87.1673 41.0423 87.2866 31.0279 83.3053C21.0134 79.3239 12.9649 71.5612 8.6198 61.6928C6.48447 56.6386 5.39034 51.2051 5.40294 45.7177ZM87.1371 45.7177C87.1305 37.6657 84.7394 29.7963 80.2657 23.1038C75.792 16.4113 69.4365 11.196 62.0023 8.11675C54.5681 5.03755 46.3886 4.23263 38.4975 5.80372C30.6063 7.3748 23.3575 11.2514 17.667 16.9437C10.0399 24.5828 5.75758 34.9412 5.76199 45.7402C5.7664 56.5391 10.0572 66.8941 17.6905 74.527C25.3238 82.1599 35.6742 86.4455 46.4649 86.4411C57.2556 86.4367 67.6026 82.1426 75.2296 74.5034C79.0199 70.7333 82.0243 66.2473 84.0684 61.3058C86.1125 56.3643 87.1555 51.0658 87.1371 45.7177Z" fill="#E29D34"/>
<path d="M22.4673 45.4903C22.4665 40.7795 23.8617 36.1742 26.4763 32.2569C29.0909 28.3396 32.8076 25.2863 37.1563 23.483C41.5049 21.6797 46.2903 21.2075 50.9072 22.126C55.524 23.0446 59.765 25.3127 63.0938 28.6435C66.4226 31.9743 68.6897 36.2181 69.6083 40.8384C70.5269 45.4587 70.0558 50.2478 68.2546 54.6001C66.4534 58.9524 63.403 62.6724 59.4892 65.2897C55.5753 67.907 50.9738 69.304 46.2666 69.304C39.9566 69.2998 33.9061 66.7897 29.4439 62.3248C24.9817 57.8599 22.4725 51.8052 22.4673 45.4903ZM69.7171 45.4903C69.721 40.8469 68.3486 36.3067 65.7736 32.444C63.1986 28.5813 59.5366 25.5697 55.251 23.7902C50.9653 22.0108 46.2486 21.5434 41.6975 22.4471C37.1464 23.3509 32.9654 25.5853 29.6834 28.8676C26.4014 32.1499 24.1659 36.3327 23.2598 40.8867C22.3537 45.4407 22.8176 50.1613 24.5928 54.4515C26.368 58.7416 29.3748 62.4084 33.2329 64.9879C37.0909 67.5675 41.6267 68.944 46.2666 68.9432C52.4817 68.938 58.4411 66.466 62.8374 62.0693C67.2336 57.6726 69.7078 51.7103 69.7171 45.4903Z" fill="#E29D34"/>
<path d="M45.9885 11.9348C45.9889 11.8896 46.007 11.8464 46.039 11.8144C46.0713 11.782 46.1152 11.7639 46.1609 11.7639C46.2066 11.7639 46.2505 11.782 46.2828 11.8144C46.3151 11.8467 46.3333 11.8906 46.3333 11.9364L46.3637 21.5673C46.3209 21.567 46.2781 21.5669 46.2353 21.5669C46.1631 21.5669 46.0909 21.5673 46.0189 21.5679L45.9885 11.9364L45.9885 11.9348Z" fill="#E29D34"/>
<path d="M44.3832 21.6377L43.5551 12.0383C43.5511 11.9932 43.5296 11.9515 43.4952 11.9222C43.4607 11.8928 43.4161 11.8782 43.371 11.8815C43.3277 11.8853 43.2873 11.9051 43.2576 11.9369C43.228 11.9688 43.2111 12.0105 43.2103 12.054L43.2143 12.0697L44.041 21.6664C44.1548 21.656 44.2689 21.6465 44.3832 21.6377Z" fill="#E29D34"/>
<path d="M42.4135 21.8711L40.7968 12.3873C40.793 12.3649 40.7848 12.3434 40.7727 12.3242C40.7606 12.3049 40.7448 12.2883 40.7262 12.2751C40.7077 12.262 40.6867 12.2527 40.6645 12.2477C40.6423 12.2428 40.6194 12.2422 40.597 12.2462C40.5572 12.2527 40.5211 12.2734 40.4952 12.3043C40.4693 12.3352 40.4554 12.3744 40.4559 12.4148V12.4462L42.0735 21.9283C42.1865 21.9084 42.2999 21.8893 42.4135 21.8711Z" fill="#E29D34"/>
<path d="M40.4693 22.2676L38.0736 12.952C38.0617 12.9132 38.0364 12.8798 38.0022 12.8578C37.9681 12.8358 37.9273 12.8266 37.887 12.8317C37.8467 12.8369 37.8096 12.8561 37.7821 12.886C37.7546 12.9159 37.7385 12.9545 37.7367 12.9951C37.736 13.0096 37.7373 13.0241 37.7406 13.0383L40.1362 22.3527C40.2469 22.3236 40.3579 22.2952 40.4693 22.2676Z" fill="#E29D34"/>
<path d="M38.5671 22.8245L35.4092 13.7401C35.3932 13.6976 35.3615 13.6629 35.3207 13.6432C35.2798 13.6235 35.2329 13.6203 35.1897 13.6343C35.1559 13.6468 35.1267 13.6692 35.1057 13.6986C35.0848 13.7279 35.0731 13.7629 35.0722 13.799C35.0719 13.8179 35.0759 13.8367 35.084 13.8538L38.2416 22.9374C38.3498 22.899 38.4583 22.8614 38.5671 22.8245Z" fill="#E29D34"/>
<path d="M36.7144 23.54L32.8154 14.7518C32.8069 14.7306 32.7942 14.7113 32.778 14.6951C32.7618 14.679 32.7424 14.6663 32.7212 14.6579C32.6999 14.6494 32.6772 14.6454 32.6543 14.6461C32.6314 14.6467 32.6089 14.652 32.5882 14.6616C32.5582 14.6756 32.5328 14.6977 32.5148 14.7254C32.4968 14.7532 32.4869 14.7854 32.4863 14.8185C32.4877 14.8427 32.493 14.8665 32.502 14.8891L36.4016 23.6788C36.5055 23.6318 36.6098 23.5855 36.7144 23.54Z" fill="#E29D34"/>
<path d="M34.9326 24.4052L30.3194 15.9674C30.3084 15.9475 30.2936 15.9301 30.2758 15.9159C30.258 15.9018 30.2376 15.8914 30.2157 15.8852C30.1939 15.879 30.171 15.8772 30.1485 15.8799C30.1259 15.8825 30.1041 15.8896 30.0843 15.9007C30.0572 15.915 30.0344 15.9364 30.0186 15.9627C30.0027 15.989 29.9943 16.0191 29.9942 16.0497C29.9936 16.0789 30.0018 16.1076 30.0177 16.1321L34.6306 24.5705C34.7309 24.5147 34.8315 24.4596 34.9326 24.4052Z" fill="#E29D34"/>
<path d="M33.2278 25.416L27.9293 17.3908C27.9091 17.3594 27.8793 17.3354 27.8443 17.3224C27.8093 17.3094 27.7711 17.3081 27.7353 17.3187C27.6996 17.3294 27.6682 17.3513 27.6459 17.3812C27.6237 17.4112 27.6117 17.4476 27.6119 17.4849C27.6113 17.5183 27.6209 17.5512 27.6393 17.579L32.9388 25.6069C33.0347 25.5426 33.131 25.479 33.2278 25.416Z" fill="#E29D34"/>
<path d="M31.6066 26.569L25.6607 19.0064C25.6396 18.9766 25.6094 18.9546 25.5747 18.9434C25.54 18.9323 25.5027 18.9328 25.4682 18.9447C25.4338 18.9566 25.4042 18.9794 25.3838 19.0096C25.3634 19.0398 25.3533 19.0758 25.3551 19.1122C25.3565 19.1508 25.3702 19.1879 25.3943 19.2181L31.338 26.7804C31.427 26.7093 31.5166 26.6388 31.6066 26.569Z" fill="#E29D34"/>
<path d="M30.0907 27.8483L23.5409 20.8023C23.5172 20.7772 23.4866 20.7598 23.453 20.7523C23.4193 20.7448 23.3842 20.7476 23.3522 20.7602C23.3201 20.7729 23.2926 20.7949 23.2732 20.8233C23.2537 20.8518 23.2432 20.8854 23.2431 20.9199C23.244 20.9635 23.2607 21.0053 23.2901 21.0376L29.8391 28.0825C29.9224 28.0039 30.0063 27.9258 30.0907 27.8483Z" fill="#E29D34"/>
<path d="M28.686 29.2477L21.578 22.7668C21.5527 22.7454 21.5218 22.7316 21.489 22.727C21.4562 22.7223 21.4227 22.727 21.3925 22.7405C21.3622 22.754 21.3363 22.7758 21.3179 22.8033C21.2994 22.8309 21.2891 22.8631 21.288 22.8962C21.2867 22.9217 21.2909 22.9472 21.3004 22.9709C21.3099 22.9946 21.3244 23.0159 21.3429 23.0335L28.4483 29.5086C28.5269 29.4211 28.6061 29.3341 28.686 29.2477Z" fill="#E29D34"/>
<path d="M27.4028 30.756L19.7795 24.8882C19.7434 24.8612 19.6982 24.8493 19.6536 24.8552C19.6089 24.861 19.5683 24.8842 19.5404 24.9196C19.515 24.949 19.5011 24.9866 19.5013 25.0255C19.5016 25.0523 19.5081 25.0786 19.5203 25.1024C19.5326 25.1262 19.5502 25.1469 19.5718 25.1627L27.1929 31.0284C27.2622 30.9371 27.3322 30.8463 27.4028 30.756Z" fill="#E29D34"/>
<path d="M26.2504 32.3616L18.1769 27.1547C18.1581 27.1417 18.1368 27.1328 18.1143 27.1283C18.0919 27.1239 18.0688 27.124 18.0465 27.1288C18.0241 27.1336 18.0029 27.1429 17.9843 27.1561C17.9656 27.1693 17.9498 27.1862 17.9379 27.2057C17.9195 27.2321 17.9099 27.2637 17.9105 27.2959C17.91 27.3247 17.917 27.3532 17.9307 27.3786C17.9444 27.404 17.9644 27.4255 17.9888 27.4409L26.0644 32.6492C26.1257 32.5528 26.1877 32.457 26.2504 32.3616Z" fill="#E29D34"/>
<path d="M25.2252 34.0733L16.735 29.5427C16.6953 29.5245 16.6501 29.522 16.6087 29.5359C16.5672 29.5497 16.5325 29.5788 16.5117 29.6172C16.4967 29.6421 16.4886 29.6705 16.4882 29.6995C16.4897 29.7299 16.4992 29.7593 16.5157 29.7847C16.5322 29.8102 16.5552 29.8309 16.5822 29.8446L25.065 34.3731C25.1177 34.2727 25.1711 34.1728 25.2252 34.0733Z" fill="#E29D34"/>
<path d="M24.3512 35.8541L15.5125 32.0406C15.4703 32.0233 15.4231 32.023 15.3807 32.0398C15.3384 32.0567 15.3041 32.0892 15.2853 32.1308C15.2818 32.1528 15.2818 32.1753 15.2853 32.1974C15.2851 32.2312 15.2946 32.2642 15.3127 32.2927C15.3307 32.3212 15.3566 32.3439 15.3871 32.3582L24.2156 36.1683C24.2601 36.0632 24.3053 35.9585 24.3512 35.8541Z" fill="#E29D34"/>
<path d="M23.6292 37.6998L14.5095 34.6325C14.4879 34.6251 14.465 34.6221 14.4423 34.6237C14.4195 34.6252 14.3973 34.6313 14.3769 34.6415C14.3565 34.6517 14.3383 34.6659 14.3234 34.6832C14.3085 34.7005 14.2972 34.7205 14.2901 34.7423C14.286 34.7603 14.286 34.7791 14.2901 34.7972C14.2901 34.833 14.3015 34.8679 14.3226 34.8968C14.3437 34.9257 14.3735 34.9471 14.4076 34.9579L23.5204 38.0237C23.5559 37.9154 23.5921 37.8074 23.6292 37.6998Z" fill="#E29D34"/>
<path d="M23.0632 39.6003L13.7219 37.2989C13.7 37.2931 13.6772 37.2917 13.6548 37.2949C13.6323 37.2981 13.6108 37.3058 13.5914 37.3175C13.572 37.3292 13.5552 37.3447 13.5419 37.3631C13.5287 37.3814 13.5192 37.4023 13.5142 37.4244C13.5123 37.4374 13.5123 37.4506 13.5142 37.4636C13.5139 37.5021 13.5264 37.5396 13.5498 37.5702C13.5733 37.6008 13.6063 37.6226 13.6435 37.6322L22.9816 39.9331C23.008 39.8219 23.0352 39.711 23.0632 39.6003Z" fill="#E29D34"/>
<path d="M22.6579 41.5402L13.1577 40.0203C13.1355 40.0163 13.1128 40.0169 13.0909 40.0219C13.069 40.0269 13.0482 40.0363 13.03 40.0495C13.0117 40.0626 12.9963 40.0793 12.9846 40.0985C12.9729 40.1178 12.9651 40.1391 12.9618 40.1614V40.1889C12.9613 40.2302 12.9756 40.2704 13.0022 40.3021C13.0288 40.3338 13.0659 40.3548 13.1068 40.3614L22.6039 41.881C22.6211 41.7672 22.6391 41.6535 22.6579 41.5402Z" fill="#E29D34"/>
<path d="M22.4133 43.525L12.8207 42.7965C12.7982 42.7943 12.7756 42.7967 12.7541 42.8035C12.7326 42.8103 12.7126 42.8213 12.6955 42.8359C12.6783 42.8506 12.6642 42.8685 12.6541 42.8887C12.644 42.9088 12.638 42.9308 12.6365 42.9533C12.6344 42.9758 12.6368 42.9985 12.6435 43.02C12.6503 43.0415 12.6613 43.0615 12.6759 43.0787C12.6906 43.0959 12.7085 43.1099 12.7286 43.1201C12.7488 43.1302 12.7708 43.1362 12.7933 43.1376L22.3881 43.8662C22.3957 43.7523 22.4041 43.6385 22.4133 43.525Z" fill="#E29D34"/>
<path d="M22.3341 45.4895L12.711 45.557C12.6653 45.557 12.6214 45.5752 12.5891 45.6076C12.5572 45.6394 12.5391 45.6825 12.5386 45.7276L12.5386 45.7256V45.7295L12.5386 45.7276C12.5391 45.7726 12.5572 45.8157 12.5891 45.8476C12.6214 45.88 12.6653 45.8982 12.711 45.8982L22.3365 45.8295C22.335 45.7164 22.3341 45.6031 22.3341 45.4895Z" fill="#E29D34"/>
<path d="M22.4166 47.4881L12.8325 48.3529C12.7899 48.3559 12.75 48.3749 12.7209 48.4062C12.6918 48.4375 12.6756 48.4787 12.6758 48.5215V48.5372C12.6797 48.5823 12.7013 48.624 12.7357 48.6533C12.7702 48.6827 12.8148 48.6973 12.8599 48.694L22.4473 47.829C22.4363 47.7156 22.4261 47.602 22.4166 47.4881Z" fill="#E29D34"/>
<path d="M22.6595 49.4426L13.1811 51.0978C13.1416 51.1051 13.106 51.1259 13.0802 51.1567C13.0545 51.1874 13.0403 51.2262 13.04 51.2664V51.2938C13.0438 51.3162 13.052 51.3377 13.0641 51.357C13.0762 51.3762 13.092 51.3929 13.1106 51.406C13.1292 51.4191 13.1501 51.4284 13.1723 51.4334C13.1945 51.4384 13.2175 51.4389 13.2399 51.435L22.7183 49.7809C22.6979 49.6684 22.6783 49.5556 22.6595 49.4426Z" fill="#E29D34"/>
<path d="M23.0654 51.3811L13.7571 53.8151C13.7208 53.8252 13.6886 53.8466 13.6654 53.8762C13.6421 53.9058 13.6289 53.9422 13.6278 53.9798C13.6281 53.9945 13.6308 54.0091 13.6356 54.023C13.6467 54.067 13.6748 54.1049 13.7136 54.1284C13.7525 54.1519 13.7991 54.1591 13.8433 54.1484L23.1523 51.7143C23.1226 51.6035 23.0936 51.4925 23.0654 51.3811Z" fill="#E29D34"/>
<path d="M23.6322 53.282L14.5603 56.4777C14.5265 56.489 14.4971 56.5106 14.476 56.5394C14.455 56.5682 14.4434 56.6028 14.4428 56.6384C14.4429 56.6586 14.4469 56.6786 14.4545 56.6973C14.4696 56.7404 14.5012 56.7758 14.5424 56.7956C14.5835 56.8155 14.6308 56.8182 14.674 56.8031L23.7469 53.6075C23.7079 53.4994 23.6697 53.3909 23.6322 53.282Z" fill="#E29D34"/>
<path d="M24.3562 55.1301L15.5752 59.0657C15.5454 59.0794 15.5203 59.1016 15.5029 59.1295C15.4854 59.1573 15.4766 59.1897 15.4773 59.2225C15.4774 59.2465 15.4814 59.2704 15.489 59.2931C15.5079 59.3346 15.5423 59.367 15.5849 59.3832C15.6275 59.3993 15.6747 59.398 15.7163 59.3794L24.4972 55.4438C24.4494 55.3396 24.4024 55.2351 24.3562 55.1301Z" fill="#E29D34"/>
<path d="M25.2353 56.9181L16.8252 61.5596C16.7986 61.5745 16.7763 61.5961 16.7605 61.6222C16.7447 61.6483 16.7359 61.6781 16.7351 61.7086C16.7295 61.7346 16.7309 61.7617 16.739 61.787C16.75 61.8069 16.7649 61.8244 16.7826 61.8385C16.8004 61.8526 16.8209 61.8631 16.8427 61.8692C16.8645 61.8754 16.8874 61.8773 16.9099 61.8746C16.9325 61.8719 16.9543 61.8648 16.9741 61.8537L25.3969 57.2099C25.3424 57.1131 25.2885 57.0158 25.2353 56.9181Z" fill="#E29D34"/>
<path d="M26.2494 58.6099L18.2357 63.9437C18.2129 63.9595 18.1942 63.9806 18.1812 64.0051C18.1683 64.0297 18.1614 64.0571 18.1613 64.0848C18.1607 64.1183 18.1702 64.1511 18.1887 64.179C18.201 64.198 18.217 64.2145 18.2357 64.2274C18.2544 64.2403 18.2754 64.2494 18.2976 64.2541C18.3198 64.2589 18.3428 64.2592 18.3651 64.255C18.3874 64.2509 18.4087 64.2423 18.4277 64.2299L26.4404 58.896C26.3761 58.8011 26.3124 58.7057 26.2494 58.6099Z" fill="#E29D34"/>
<path d="M27.4054 60.2202L19.8617 66.1984C19.8413 66.215 19.8247 66.2359 19.8132 66.2596C19.8017 66.2833 19.7955 66.3093 19.7951 66.3356C19.795 66.3745 19.8089 66.4121 19.8343 66.4415C19.8481 66.4592 19.8652 66.474 19.8848 66.485C19.9043 66.4959 19.9258 66.5029 19.9481 66.5055C19.9703 66.508 19.9929 66.5061 20.0144 66.4998C20.0359 66.4936 20.0559 66.4831 20.0733 66.469L27.619 60.4892C27.5472 60.4001 27.476 60.3104 27.4054 60.2202Z" fill="#E29D34"/>
<path d="M28.6917 61.7314L21.6641 68.3119C21.6474 68.3291 21.6344 68.3493 21.6256 68.3715C21.6169 68.3937 21.6126 68.4175 21.6131 68.4413C21.6122 68.4749 21.6213 68.508 21.6392 68.5363C21.6572 68.5647 21.6832 68.587 21.7139 68.6005C21.7446 68.614 21.7787 68.618 21.8117 68.612C21.8447 68.606 21.8751 68.5903 21.8991 68.5668L28.9284 61.9836C28.8489 61.9001 28.77 61.816 28.6917 61.7314Z" fill="#E29D34"/>
<path d="M30.0936 63.1272L23.6388 70.2726C23.6117 70.3044 23.5965 70.3445 23.5957 70.3863C23.5991 70.4309 23.6186 70.4727 23.6505 70.5039C23.6828 70.536 23.7265 70.554 23.772 70.554C23.8175 70.554 23.8612 70.536 23.8935 70.5039L30.3495 63.3585C30.2636 63.282 30.1783 63.2049 30.0936 63.1272Z" fill="#E29D34"/>
<path d="M31.6231 64.4167L25.7822 72.0607C25.759 72.0911 25.7466 72.1283 25.7469 72.1665C25.7472 72.1928 25.7537 72.2186 25.766 72.2418C25.7783 72.2649 25.7959 72.2849 25.8174 72.2999C25.8351 72.3138 25.8553 72.324 25.877 72.3299C25.8986 72.3359 25.9213 72.3375 25.9435 72.3345C25.9658 72.3316 25.9873 72.3243 26.0066 72.3129C26.026 72.3016 26.043 72.2865 26.0564 72.2685L31.8967 64.6254C31.805 64.5565 31.7138 64.4869 31.6231 64.4167Z" fill="#E29D34"/>
<path d="M33.2244 65.5547L28.039 73.6644C28.0209 73.6925 28.0114 73.7252 28.0115 73.7585C28.0115 73.7873 28.0186 73.8157 28.0323 73.8411C28.046 73.8664 28.0658 73.8879 28.0899 73.9036C28.1286 73.9277 28.1751 73.9358 28.2197 73.9263C28.2642 73.9168 28.3034 73.8904 28.3289 73.8526L33.515 65.7408C33.4177 65.6795 33.3208 65.6174 33.2244 65.5547Z" fill="#E29D34"/>
<path d="M34.9152 66.5583L30.4135 75.08C30.4077 75.1058 30.4077 75.1326 30.4135 75.1584H30.3939C30.3933 75.1972 30.4058 75.2351 30.4294 75.2659C30.4531 75.2967 30.4864 75.3186 30.524 75.3282C30.5616 75.3377 30.6013 75.3342 30.6367 75.3184C30.6721 75.3025 30.7011 75.2752 30.7191 75.2407L35.2204 66.72C35.1182 66.6668 35.0165 66.6129 34.9152 66.5583Z" fill="#E29D34"/>
<path d="M36.7137 67.4326L32.9251 76.2956C32.9214 76.3177 32.9214 76.3402 32.9251 76.3622C32.9279 76.3958 32.94 76.4279 32.9601 76.455C32.9802 76.482 33.0074 76.5028 33.0387 76.5152C33.0814 76.5322 33.129 76.5319 33.1715 76.5143C33.2139 76.4967 33.2478 76.4633 33.266 76.4211L37.042 67.5725C36.9322 67.5267 36.8227 67.4801 36.7137 67.4326Z" fill="#E29D34"/>
<path d="M38.5763 68.1515L35.5424 77.2837C35.5391 77.3019 35.5391 77.3205 35.5424 77.3386C35.5416 77.374 35.5517 77.4088 35.5714 77.4383C35.591 77.4678 35.6192 77.4905 35.6522 77.5033C35.6958 77.5171 35.7431 77.5134 35.7841 77.4929C35.825 77.4724 35.8564 77.4368 35.8716 77.3935L38.9054 68.2602C38.7954 68.2247 38.6857 68.1885 38.5763 68.1515Z" fill="#E29D34"/>
<path d="M40.4613 68.7033L38.1951 78.0641C38.1933 78.0784 38.1933 78.0929 38.1951 78.1072C38.1965 78.1454 38.2103 78.1821 38.2343 78.2118C38.2583 78.2415 38.2913 78.2626 38.3284 78.2719C38.3725 78.2826 38.4191 78.2754 38.458 78.2519C38.4969 78.2284 38.5249 78.1905 38.536 78.1464L40.8012 68.785C40.6876 68.7586 40.5743 68.7314 40.4613 68.7033Z" fill="#E29D34"/>
<path d="M42.4072 69.1008L40.9221 78.6209V78.6483H40.9182C40.915 78.6941 40.9302 78.7392 40.9603 78.7738C40.9905 78.8083 41.0331 78.8295 41.0788 78.8326C41.1245 78.8357 41.1696 78.8205 41.2042 78.7904C41.2387 78.7602 41.2598 78.7176 41.263 78.6718L42.7468 69.153C42.6333 69.1364 42.5201 69.119 42.4072 69.1008Z" fill="#E29D34"/>
<path d="M44.3804 69.335L43.6884 78.962V78.9856C43.6946 79.0264 43.7152 79.0636 43.7465 79.0905C43.7778 79.1174 43.8177 79.1322 43.8589 79.1322C43.9001 79.1322 43.94 79.1174 43.9713 79.0905C44.0025 79.0636 44.0231 79.0264 44.0293 78.9856L44.7225 69.3588C44.6082 69.3517 44.4942 69.3437 44.3804 69.335Z" fill="#E29D34"/>
<path d="M46.3791 69.4055L46.4861 79.0522C46.4871 79.0973 46.5057 79.1401 46.538 79.1717C46.5702 79.2032 46.6135 79.2208 46.6585 79.2208C46.7042 79.2208 46.7481 79.2026 46.7804 79.1703C46.8128 79.1379 46.8309 79.094 46.8309 79.0483L46.7183 69.4012C46.6054 69.4034 46.4923 69.4049 46.3791 69.4055Z" fill="#E29D34"/>
<path d="M48.332 69.3152L49.2328 78.9149C49.2321 78.9393 49.2366 78.9636 49.246 78.9861C49.2553 79.0087 49.2694 79.0289 49.2871 79.0456C49.3049 79.0623 49.326 79.0751 49.3491 79.083C49.3722 79.0909 49.3966 79.0939 49.4209 79.0916C49.4452 79.0894 49.4687 79.082 49.4899 79.07C49.5112 79.058 49.5296 79.0417 49.544 79.022C49.5585 79.0023 49.5686 78.9798 49.5737 78.956C49.5788 78.9321 49.5788 78.9074 49.5737 78.8836L48.6729 69.2831C48.5595 69.2946 48.4459 69.3053 48.332 69.3152Z" fill="#E29D34"/>
<path d="M50.3031 69.0609L51.999 78.5542C52.0076 78.599 52.0332 78.6388 52.0704 78.6651C52.1077 78.6914 52.1537 78.7023 52.1988 78.6954C52.2436 78.6868 52.2833 78.6611 52.3096 78.6238C52.3359 78.5866 52.3467 78.5405 52.3398 78.4954L50.6425 69.0002C50.5297 69.0212 50.4165 69.0415 50.3031 69.0609Z" fill="#E29D34"/>
<path d="M52.2404 68.6447L54.7182 77.966C54.732 78.0075 54.761 78.0423 54.7994 78.0632C54.8378 78.0841 54.8827 78.0896 54.925 78.0787C54.9673 78.0677 55.0039 78.0411 55.0274 78.0041C55.0508 77.9672 55.0593 77.9227 55.0512 77.8797L52.5731 68.556C52.4625 68.5863 52.3516 68.6159 52.2404 68.6447Z" fill="#E29D34"/>
<path d="M54.1418 68.0662L57.3788 77.1543C57.3939 77.1974 57.4255 77.2328 57.4666 77.2527C57.5077 77.2725 57.5551 77.2752 57.5982 77.2602C57.6195 77.2528 57.6391 77.2411 57.6558 77.226C57.6726 77.2108 57.6861 77.1924 57.6956 77.172C57.7051 77.1515 57.7104 77.1293 57.7111 77.1067C57.7119 77.0842 57.7081 77.0617 57.7001 77.0406L54.4586 67.9526C54.3534 67.9912 54.2477 68.0291 54.1418 68.0662Z" fill="#E29D34"/>
<path d="M55.9837 67.3325L59.9609 76.1113C59.9818 76.1494 60.0162 76.1782 60.0573 76.1919C60.0984 76.2057 60.1433 76.2035 60.1828 76.1857C60.2224 76.1679 60.2538 76.1358 60.2707 76.0958C60.2877 76.0559 60.289 76.011 60.2744 75.9701L56.294 67.1909C56.191 67.2388 56.0875 67.2861 55.9837 67.3325Z" fill="#E29D34"/>
<path d="M57.7499 66.4523L62.4488 74.8879C62.4599 74.9077 62.4747 74.9251 62.4925 74.9392C62.5103 74.9533 62.5307 74.9637 62.5526 74.9699C62.5744 74.9761 62.5972 74.9779 62.6198 74.9753C62.6423 74.9727 62.6641 74.9656 62.6839 74.9545C62.7037 74.9435 62.7211 74.9286 62.7352 74.9108C62.7493 74.893 62.7597 74.8725 62.7659 74.8507C62.7721 74.8288 62.7739 74.806 62.7713 74.7834C62.7686 74.7609 62.7616 74.7391 62.7505 74.7192L58.0497 66.2842C57.9502 66.3409 57.8503 66.397 57.7499 66.4523Z" fill="#E29D34"/>
<path d="M59.4384 65.4283L64.8272 73.4488C64.8533 73.4859 64.8928 73.5115 64.9373 73.5202C64.9818 73.529 65.028 73.5203 65.0662 73.4958C65.1041 73.4703 65.1303 73.4308 65.1392 73.386C65.148 73.3411 65.1386 73.2946 65.1132 73.2566L59.7266 65.2338C59.6311 65.2993 59.535 65.3641 59.4384 65.4283Z" fill="#E29D34"/>
<path d="M61.0435 64.2633L67.0802 71.8136C67.1083 71.849 67.1492 71.8717 67.1941 71.8769C67.2389 71.882 67.2839 71.8691 67.3192 71.8411C67.3546 71.813 67.3773 71.772 67.3825 71.7271C67.3876 71.6823 67.3747 71.6372 67.3467 71.6019L61.3115 64.0482C61.2227 64.1205 61.1334 64.1922 61.0435 64.2633Z" fill="#E29D34"/>
<path d="M62.5437 62.9729L69.1883 70.0059C69.2217 70.0374 69.2659 70.0549 69.3117 70.0549C69.3576 70.0549 69.4017 70.0374 69.4351 70.0059C69.4672 69.9736 69.4852 69.9299 69.4852 69.8844C69.4852 69.8388 69.4672 69.7951 69.4351 69.7628L62.7956 62.734C62.7122 62.8143 62.6282 62.8939 62.5437 62.9729Z" fill="#E29D34"/>
<path d="M63.9288 61.5678L71.1357 68.0336C71.1699 68.0642 71.215 68.08 71.2609 68.0775C71.3069 68.0749 71.3499 68.0542 71.3805 68.0198C71.4112 67.9855 71.427 67.9404 71.4244 67.8945C71.4218 67.8485 71.4011 67.8054 71.3668 67.7748L64.1575 61.3123C64.0819 61.398 64.0057 61.4832 63.9288 61.5678Z" fill="#E29D34"/>
<path d="M65.2001 60.0462L72.9066 65.8808C72.9437 65.9076 72.9899 65.919 73.0352 65.9124C73.0806 65.9058 73.1216 65.8818 73.1495 65.8455C73.1638 65.8278 73.1742 65.8074 73.1801 65.7854C73.1861 65.7635 73.1875 65.7406 73.1842 65.7182C73.1808 65.6957 73.1729 65.6742 73.1609 65.6549C73.1489 65.6357 73.133 65.6191 73.1143 65.6063L65.4074 59.772C65.339 59.8639 65.2698 59.9553 65.2001 60.0462Z" fill="#E29D34"/>
<path d="M66.3482 58.4144L74.5132 63.5908C74.5519 63.6148 74.5984 63.6229 74.6429 63.6134C74.6875 63.6039 74.7266 63.5775 74.7522 63.5398C74.7644 63.5205 74.7727 63.499 74.7765 63.4765C74.7804 63.454 74.7798 63.431 74.7747 63.4087C74.7696 63.3865 74.7601 63.3655 74.7468 63.3469C74.7335 63.3283 74.7167 63.3126 74.6973 63.3006L66.5325 58.1232C66.4718 58.2207 66.4103 58.3178 66.3482 58.4144Z" fill="#E29D34"/>
<path d="M67.3386 56.7264L75.8962 61.2067C75.9368 61.2273 75.9838 61.231 76.0271 61.2171C76.0704 61.2031 76.1065 61.1726 76.1274 61.1322C76.1483 61.092 76.1526 61.0453 76.1394 61.002C76.1262 60.9588 76.0966 60.9224 76.0568 60.9008L67.4981 56.4217C67.4456 56.5237 67.3925 56.6253 67.3386 56.7264Z" fill="#E29D34"/>
<path d="M68.1976 54.939L77.103 58.6971C77.1239 58.7061 77.1463 58.711 77.169 58.7114C77.1917 58.7118 77.2143 58.7076 77.2354 58.6993C77.2565 58.6909 77.2758 58.6784 77.2921 58.6625C77.3083 58.6467 77.3213 58.6278 77.3303 58.6069C77.3473 58.5642 77.347 58.5165 77.3294 58.474C77.3119 58.4316 77.2784 58.3976 77.2363 58.3794L68.3315 54.6217C68.2876 54.7278 68.243 54.8336 68.1976 54.939Z" fill="#E29D34"/>
<path d="M68.9042 53.0881L78.0943 56.0973C78.1165 56.1078 78.1406 56.1135 78.1651 56.1139C78.1896 56.1143 78.2139 56.1095 78.2364 56.0998C78.2589 56.0901 78.279 56.0757 78.2955 56.0576C78.312 56.0395 78.3245 56.0181 78.3321 55.9948C78.3397 55.9714 78.3422 55.9468 78.3395 55.9224C78.3368 55.898 78.3289 55.8745 78.3165 55.8534C78.304 55.8323 78.2871 55.8142 78.2671 55.8001C78.247 55.786 78.2242 55.7764 78.2001 55.7718L69.0106 52.7624C68.9759 52.8713 68.9404 52.9799 68.9042 53.0881Z" fill="#E29D34"/>
<path d="M69.4536 51.1867L78.8662 53.4269C78.8889 53.435 78.9131 53.4383 78.9371 53.4365C78.9611 53.4347 78.9845 53.4278 79.0058 53.4164C79.027 53.405 79.0456 53.3893 79.0604 53.3702C79.0751 53.3512 79.0858 53.3292 79.0915 53.3058C79.0973 53.2824 79.0981 53.258 79.0939 53.2343C79.0897 53.2105 79.0806 53.1879 79.0671 53.1679C79.0536 53.148 79.0361 53.131 79.0157 53.1182C78.9953 53.1054 78.9724 53.097 78.9485 53.0936L69.5325 50.8532C69.507 50.9647 69.4807 51.0759 69.4536 51.1867Z" fill="#E29D34"/>
<path d="M69.8426 49.2478L79.4149 50.7017C79.4601 50.7084 79.5061 50.6969 79.5428 50.6697C79.5796 50.6425 79.604 50.6018 79.6108 50.5566C79.6147 50.5344 79.6141 50.5117 79.6091 50.4897C79.6041 50.4678 79.5947 50.4471 79.5816 50.4288C79.5684 50.4105 79.5518 50.3951 79.5325 50.3833C79.5133 50.3716 79.492 50.3639 79.4697 50.3605L69.894 48.9062C69.8777 49.0203 69.8606 49.1342 69.8426 49.2478Z" fill="#E29D34"/>
<path d="M70.0693 47.2925L79.7322 47.949C79.7563 47.9539 79.7812 47.9537 79.8052 47.9483C79.8292 47.9428 79.8517 47.9323 79.8713 47.9174C79.8909 47.9025 79.9071 47.8836 79.9187 47.862C79.9304 47.8403 79.9373 47.8164 79.939 47.7919C79.9407 47.7673 79.9372 47.7427 79.9285 47.7196C79.9199 47.6966 79.9065 47.6756 79.8891 47.6582C79.8718 47.6408 79.8509 47.6273 79.8279 47.6186C79.8049 47.6099 79.7803 47.6062 79.7557 47.6078L70.0924 46.9513C70.0855 47.0653 70.0778 47.179 70.0693 47.2925Z" fill="#E29D34"/>
<path d="M70.1358 45.306L79.8263 45.161C79.8713 45.1581 79.9137 45.1383 79.9449 45.1056C79.9761 45.0729 79.9939 45.0297 79.9948 44.9845C79.9948 44.9617 79.9902 44.9391 79.9812 44.9182C79.9723 44.8972 79.9592 44.8782 79.9427 44.8625C79.9262 44.8467 79.9067 44.8344 79.8853 44.8264C79.864 44.8184 79.8412 44.8149 79.8184 44.8159L70.1308 44.962C70.1333 45.0764 70.1349 45.1911 70.1358 45.306Z" fill="#E29D34"/>
<path d="M70.0405 43.328L79.6774 42.3808C79.7018 42.3815 79.726 42.377 79.7485 42.3677C79.771 42.3583 79.7913 42.3442 79.808 42.3265C79.8247 42.3087 79.8374 42.2875 79.8453 42.2645C79.8532 42.2414 79.8562 42.2169 79.8539 42.1926C79.8517 42.1683 79.8444 42.1447 79.8324 42.1235C79.8204 42.1022 79.804 42.0838 79.7843 42.0693C79.7647 42.0549 79.7422 42.0448 79.7184 42.0397C79.6945 42.0346 79.6699 42.0346 79.646 42.0397L70.0075 42.987C70.0193 43.1004 70.0303 43.2141 70.0405 43.328Z" fill="#E29D34"/>
<path d="M69.7837 41.369L79.3051 39.6281C79.3499 39.6195 79.3896 39.5939 79.4159 39.5566C79.4422 39.5193 79.453 39.4733 79.4461 39.4282C79.4366 39.383 79.4102 39.3432 79.3723 39.317C79.3344 39.2907 79.2879 39.28 79.2424 39.287L69.7219 41.0276C69.7433 41.1411 69.7639 41.2549 69.7837 41.369Z" fill="#E29D34"/>
<path d="M69.3645 39.4333L78.7057 36.9107C78.7273 36.9051 78.7476 36.8952 78.7654 36.8817C78.7832 36.8682 78.7981 36.8513 78.8094 36.832C78.8207 36.8127 78.828 36.7914 78.8311 36.7692C78.8341 36.7471 78.8328 36.7245 78.8271 36.7029C78.8215 36.6813 78.8116 36.661 78.7981 36.6432C78.7846 36.6254 78.7677 36.6104 78.7485 36.5991C78.7292 36.5878 78.7079 36.5804 78.6857 36.5774C78.6636 36.5743 78.6411 36.5757 78.6195 36.5814L69.2759 39.1031C69.3062 39.2128 69.3357 39.3229 69.3645 39.4333Z" fill="#E29D34"/>
<path d="M68.7868 37.5427L77.8868 34.256C77.9081 34.2486 77.9277 34.237 77.9444 34.2218C77.9611 34.2067 77.9746 34.1883 77.9841 34.1678C77.9936 34.1473 77.9989 34.1252 77.9997 34.1026C78.0005 34.08 77.9967 34.0575 77.9886 34.0364C77.9735 33.9933 77.9419 33.9579 77.9008 33.9381C77.8597 33.9182 77.8123 33.9155 77.7692 33.9306L68.6696 37.2171C68.7094 37.3253 68.7485 37.4338 68.7868 37.5427Z" fill="#E29D34"/>
<path d="M68.0525 35.7036L76.8483 31.6759C76.8898 31.6566 76.9221 31.6217 76.9379 31.5787C76.9537 31.5356 76.9517 31.4881 76.9325 31.4465C76.9133 31.4049 76.8783 31.3726 76.8353 31.3568C76.7924 31.341 76.7449 31.3429 76.7033 31.3622L67.9094 35.3906C67.9579 35.4945 68.0055 35.5988 68.0525 35.7036Z" fill="#E29D34"/>
<path d="M67.1716 33.9386L75.5985 29.1937C75.6385 29.1714 75.668 29.134 75.6805 29.0899C75.693 29.0458 75.6875 28.9985 75.6651 28.9585C75.6428 28.9184 75.6055 28.8889 75.5614 28.8764C75.5173 28.8639 75.47 28.8694 75.43 28.8918L66.9999 33.6328C67.0578 33.7343 67.1151 33.8362 67.1716 33.9386Z" fill="#E29D34"/>
<path d="M66.1393 32.2393L74.1486 26.8135C74.1857 26.7874 74.2113 26.7479 74.22 26.7034C74.2288 26.6588 74.2201 26.6126 74.1956 26.5744C74.1702 26.5364 74.1307 26.5102 74.0859 26.5013C74.0411 26.4925 73.9946 26.5019 73.9566 26.5273L65.9459 31.9533C66.011 32.0481 66.0755 32.1435 66.1393 32.2393Z" fill="#E29D34"/>
<path d="M64.9773 30.6411L72.507 24.5745C72.5249 24.5608 72.5397 24.5436 72.5507 24.5239C72.5616 24.5042 72.5684 24.4825 72.5706 24.46C72.5728 24.4376 72.5704 24.415 72.5635 24.3935C72.5566 24.3721 72.5454 24.3523 72.5305 24.3353C72.5168 24.3177 72.4996 24.3029 72.4801 24.2919C72.4606 24.2809 72.439 24.274 72.4168 24.2714C72.3945 24.2688 72.372 24.2708 72.3505 24.277C72.329 24.2833 72.3089 24.2938 72.2915 24.3079L64.7616 30.3726C64.8341 30.4616 64.9061 30.5511 64.9773 30.6411Z" fill="#E29D34"/>
<path d="M63.6883 29.1441L70.6811 22.4845C70.7144 22.4528 70.7337 22.4091 70.7348 22.3632C70.7359 22.3172 70.7187 22.2727 70.687 22.2394C70.6553 22.2061 70.6117 22.1868 70.5658 22.1857C70.5199 22.1846 70.4754 22.2018 70.4421 22.2335L63.4497 28.8927C63.5298 28.9759 63.6094 29.0597 63.6883 29.1441Z" fill="#E29D34"/>
<path d="M62.2779 27.7554L68.7103 20.5161C68.7292 20.5001 68.7444 20.4803 68.755 20.458C68.7656 20.4356 68.7712 20.4113 68.7716 20.3866C68.7719 20.3618 68.7669 20.3373 68.757 20.3147C68.7471 20.2921 68.7324 20.2718 68.714 20.2554C68.6955 20.2389 68.6738 20.2266 68.6502 20.2193C68.6266 20.212 68.6017 20.2098 68.5772 20.213C68.5527 20.2161 68.5292 20.2245 68.5082 20.2376C68.4872 20.2506 68.4693 20.268 68.4556 20.2886L62.019 27.524C62.1059 27.6005 62.1922 27.6776 62.2779 27.7554Z" fill="#E29D34"/>
<path d="M60.7471 26.4789L66.5434 18.7593C66.5572 18.7411 66.5672 18.7203 66.5729 18.6982C66.5786 18.676 66.5799 18.653 66.5766 18.6304C66.5733 18.6077 66.5656 18.586 66.5538 18.5664C66.5421 18.5468 66.5265 18.5297 66.5082 18.5162C66.4716 18.4896 66.4261 18.4783 66.3814 18.4849C66.3367 18.4915 66.2964 18.5154 66.2691 18.5515L60.4724 26.2717C60.5645 26.3401 60.6561 26.4092 60.7471 26.4789Z" fill="#E29D34"/>
<path d="M57.7597 24.526L62.3352 16.0341C62.346 16.014 62.3528 15.992 62.3551 15.9693C62.3574 15.9466 62.3552 15.9237 62.3487 15.9018C62.3421 15.88 62.3313 15.8596 62.3169 15.842C62.3025 15.8243 62.2848 15.8096 62.2647 15.7988C62.2446 15.788 62.2226 15.7812 62.2 15.7789C62.1773 15.7766 62.1544 15.7788 62.1326 15.7854C62.1107 15.7919 62.0904 15.8027 62.0727 15.8171C62.0551 15.8315 62.0404 15.8493 62.0296 15.8694L57.4506 24.3584C57.5541 24.4135 57.6571 24.4694 57.7597 24.526Z" fill="#E29D34"/>
<path d="M55.9797 23.6386L59.8354 14.7989C59.8436 14.778 59.8475 14.7558 59.847 14.7334C59.8465 14.711 59.8416 14.689 59.8324 14.6685C59.8233 14.6481 59.8102 14.6297 59.7939 14.6143C59.7776 14.599 59.7584 14.5871 59.7375 14.5793C59.7169 14.5695 59.6947 14.564 59.672 14.5631C59.6493 14.5622 59.6267 14.5659 59.6055 14.574C59.5842 14.582 59.5649 14.5943 59.5485 14.61C59.5321 14.6258 59.5191 14.6446 59.5102 14.6655L55.6579 23.4975C55.7656 23.5438 55.8729 23.5908 55.9797 23.6386Z" fill="#E29D34"/>
<path d="M54.1385 22.9055L57.2454 13.7872C57.2527 13.7656 57.2557 13.7427 57.2542 13.7199C57.2526 13.6971 57.2466 13.6749 57.2364 13.6545C57.2262 13.634 57.212 13.6158 57.1947 13.6009C57.1774 13.586 57.1574 13.5747 57.1357 13.5676C57.1146 13.5602 57.0923 13.5571 57.07 13.5584C57.0476 13.5598 57.0258 13.5655 57.0058 13.5754C56.9857 13.5852 56.9678 13.599 56.9531 13.6158C56.9384 13.6327 56.9272 13.6523 56.9202 13.6735L53.8116 22.7936C53.9209 22.8301 54.0299 22.8675 54.1385 22.9055Z" fill="#E29D34"/>
<path d="M52.2454 22.3295L54.585 12.9912C54.5924 12.9688 54.5952 12.9451 54.5931 12.9215C54.591 12.898 54.5841 12.8751 54.5728 12.8544C54.5615 12.8336 54.5461 12.8154 54.5274 12.8008C54.5088 12.7863 54.4874 12.7757 54.4645 12.7698C54.4417 12.7639 54.4178 12.7627 54.3945 12.7664C54.3712 12.7701 54.3489 12.7785 54.3289 12.7912C54.309 12.8039 54.2919 12.8205 54.2786 12.8401C54.2654 12.8596 54.2563 12.8817 54.2519 12.9049L51.9107 22.2453C52.0226 22.2726 52.1342 22.3007 52.2454 22.3295Z" fill="#E29D34"/>
<path d="M50.3096 21.9131L51.8697 12.4069C51.8765 12.3623 51.8655 12.3167 51.8391 12.28C51.8128 12.2434 51.7731 12.2185 51.7286 12.2108C51.7062 12.2069 51.6833 12.2074 51.6611 12.2124C51.6389 12.2174 51.6179 12.2267 51.5993 12.2398C51.5808 12.2529 51.565 12.2696 51.5529 12.2889C51.5407 12.3081 51.5326 12.3296 51.5288 12.352L49.9687 21.857C50.0826 21.8749 50.1962 21.8936 50.3096 21.9131Z" fill="#E29D34"/>
<path d="M48.3455 21.6589L49.1113 12.0736C49.1135 12.0512 49.1111 12.0285 49.1043 12.007C49.0975 11.9854 49.0865 11.9655 49.0719 11.9483C49.0573 11.9311 49.0394 11.917 49.0192 11.9069C48.9991 11.8968 48.9771 11.8908 48.9546 11.8893C48.9095 11.8861 48.8649 11.9007 48.8304 11.93C48.796 11.9594 48.7744 12.0011 48.7704 12.0462L48.0035 21.6314C48.1178 21.6398 48.2318 21.6489 48.3455 21.6589Z" fill="#E29D34"/>
<path d="M59.4745 25.6085L64.4419 17.5087C64.4527 17.4886 64.4594 17.4666 64.4618 17.4439C64.4641 17.4212 64.4619 17.3983 64.4553 17.3765C64.4488 17.3546 64.438 17.3343 64.4236 17.3166C64.4092 17.2989 64.3914 17.2843 64.3714 17.2734C64.3513 17.2626 64.3293 17.2559 64.3066 17.2536C64.284 17.2513 64.261 17.2535 64.2392 17.26C64.2174 17.2666 64.1971 17.2774 64.1794 17.2918C64.1617 17.3062 64.1471 17.3239 64.1363 17.344L59.1654 25.4409C59.2689 25.4961 59.3719 25.5519 59.4745 25.6085Z" fill="#E29D34"/>
<path d="M46.3408 88.2277C46.0137 88.2797 45.6786 88.2334 45.3778 88.0946C45.077 87.9558 44.8242 87.7308 44.6513 87.4481C44.4784 87.1654 44.3933 86.8378 44.4066 86.5066C44.42 86.1754 44.5313 85.8556 44.7264 85.5878C44.9214 85.32 45.1916 85.1161 45.5025 85.002C45.8135 84.888 46.1513 84.8688 46.4731 84.947C46.795 85.0252 47.0864 85.1973 47.3104 85.4413C47.5345 85.6854 47.6811 85.9906 47.7318 86.3181C47.7658 86.5349 47.7568 86.7563 47.7053 86.9696C47.6538 87.1829 47.5608 87.384 47.4317 87.5614C47.3025 87.7387 47.1397 87.8888 46.9525 88.0032C46.7653 88.1175 46.5575 88.1938 46.3408 88.2277Z" fill="#320049"/>
<path d="M44.2369 86.5808C44.2383 86.2291 44.3403 85.885 44.5308 85.5894C44.7213 85.2937 44.9924 85.0588 45.312 84.9124C45.6317 84.766 45.9865 84.7142 46.3346 84.7631C46.6827 84.812 47.0096 84.9596 47.2765 85.1885C47.5435 85.4174 47.7395 85.7179 47.8412 86.0546C47.943 86.3914 47.9463 86.7502 47.8508 87.0888C47.7553 87.4274 47.565 87.7315 47.3023 87.9653C47.0396 88.1991 46.7156 88.3528 46.3685 88.4081C45.8848 88.4838 45.391 88.3645 44.9951 88.0764C44.5992 87.7882 44.3336 87.3548 44.2565 86.871C44.2423 86.775 44.2358 86.6779 44.2369 86.5808ZM47.5831 86.5808C47.5888 86.5012 47.5888 86.4213 47.5831 86.3417C47.5369 86.0483 47.4048 85.7752 47.2036 85.557C47.0023 85.3387 46.7409 85.1851 46.4525 85.1154C46.164 85.0458 45.8613 85.0634 45.5828 85.1659C45.3043 85.2684 45.0624 85.4512 44.8877 85.6913C44.713 85.9314 44.6133 86.2179 44.6013 86.5146C44.5893 86.8113 44.6654 87.105 44.8201 87.3584C44.9748 87.6119 45.2012 87.8137 45.4705 87.9384C45.7398 88.0631 46.04 88.1052 46.3332 88.0592C46.5281 88.0292 46.7151 87.9608 46.8833 87.8578C47.0515 87.7548 47.1975 87.6193 47.3127 87.4592C47.493 87.2051 47.5877 86.9002 47.5831 86.5887V86.5808Z" fill="#E29D34"/>
<path d="M46.3407 6.50541C46.0138 6.55725 45.6788 6.51088 45.3782 6.37217C45.0777 6.23346 44.8249 6.00864 44.6521 5.72615C44.4792 5.44366 44.3939 5.11621 44.4071 4.78522C44.4202 4.45422 44.5312 4.13457 44.7259 3.86669C44.9206 3.59882 45.1903 3.39477 45.501 3.28035C45.8116 3.16594 46.1492 3.14631 46.4709 3.22394C46.7927 3.30157 47.0843 3.47297 47.3087 3.71647C47.5331 3.95996 47.6803 4.2646 47.7317 4.59185C47.8005 5.03015 47.6926 5.47787 47.4318 5.83665C47.171 6.19544 46.7786 6.43597 46.3407 6.50541Z" fill="#E29D34"/>
<path d="M4.65912 47.247C4.32516 47.0027 4.10122 46.6363 4.03612 46.2275C4.03028 46.1465 4.03028 46.0653 4.03612 45.9844H7.1707C7.16806 46.3549 7.03441 46.7126 6.79343 46.9939C6.55244 47.2753 6.2197 47.4622 5.85418 47.5215C5.64677 47.5585 5.43405 47.5532 5.22871 47.506C5.02338 47.4589 4.82966 47.3708 4.65912 47.247Z" fill="#320049"/>
<path d="M5.8541 47.7528C6.08735 47.7173 6.31128 47.6359 6.513 47.5134C6.71473 47.3909 6.89028 47.2298 7.02957 47.0392C7.30711 46.6541 7.42248 46.1753 7.35086 45.706C7.28418 45.2587 7.05061 44.8533 6.6972 44.5714C6.34378 44.2896 5.89678 44.1522 5.44622 44.187C4.99566 44.2218 4.57502 44.4262 4.269 44.759C3.96299 45.0918 3.79434 45.5282 3.79703 45.9805C3.79575 46.0749 3.80231 46.1694 3.81662 46.2628C3.85289 46.4951 3.9346 46.7181 4.05707 46.9188C4.17955 47.1195 4.34039 47.2941 4.53038 47.4325C4.72037 47.5709 4.93578 47.6704 5.16427 47.7254C5.39276 47.7804 5.62984 47.7897 5.86194 47.7528H5.8541ZM4.67863 47.247C4.34467 47.0028 4.12073 46.6363 4.05563 46.2275C4.04979 46.1466 4.04979 46.0653 4.05563 45.9844H7.19021C7.18758 46.3549 7.05392 46.7126 6.81294 46.994C6.57196 47.2753 6.23921 47.4622 5.87369 47.5215C5.66323 47.5612 5.44687 47.5574 5.23796 47.5102C5.02905 47.4629 4.83202 47.3734 4.65904 47.247H4.67863Z" fill="#E29D34"/>
<path d="M88.1131 44.7256C88.447 44.9699 88.671 45.3364 88.7361 45.7452C88.7419 45.8248 88.7419 45.9047 88.7361 45.9843H85.6211C85.6253 45.6983 85.7075 45.4189 85.8589 45.1762C86.0104 44.9336 86.2252 44.737 86.4802 44.6078C86.7353 44.4786 87.0207 44.4216 87.3058 44.4431C87.5908 44.4645 87.8646 44.5636 88.0974 44.7296L88.1131 44.7256Z" fill="#320049"/>
<path d="M86.9177 44.2197C86.5805 44.2729 86.2655 44.4217 86.0101 44.6484C85.7548 44.8751 85.5696 45.1704 85.4767 45.4991C85.3837 45.8279 85.3868 46.1764 85.4856 46.5034C85.5844 46.8305 85.7748 47.1223 86.0342 47.3445C86.2936 47.5666 86.6111 47.7098 86.9492 47.7569C87.2874 47.8041 87.6319 47.7533 87.9421 47.6106C88.2523 47.4679 88.5152 47.2393 88.6996 46.9517C88.884 46.6642 88.9822 46.3298 88.9826 45.9882C88.9904 45.8942 88.9904 45.7998 88.9826 45.7058C88.9075 45.2377 88.65 44.8185 88.2667 44.54C87.8833 44.2614 87.4053 44.1462 86.9373 44.2197H86.9177ZM88.0932 44.7255C88.4271 44.9698 88.6511 45.3362 88.7162 45.745C88.722 45.8247 88.722 45.9046 88.7162 45.9842H85.6012C85.6053 45.6982 85.6876 45.4187 85.839 45.1761C85.9904 44.9335 86.2053 44.7369 86.4603 44.6077C86.7153 44.4785 87.0008 44.4215 87.2859 44.443C87.5709 44.4644 87.8446 44.5635 88.0775 44.7294L88.0932 44.7255Z" fill="#E29D34"/>
<path d="M16.0018 75.1857C15.8855 74.9751 15.8191 74.7406 15.8079 74.5002C15.7966 74.2599 15.8408 74.0202 15.9369 73.7997C16.033 73.5791 16.1786 73.3837 16.3622 73.2285C16.5459 73.0732 16.7628 72.9624 16.9962 72.9045C17.2295 72.8465 17.4731 72.8431 17.7079 72.8945C17.9428 72.9458 18.1627 73.0506 18.3507 73.2006C18.5387 73.3506 18.6896 73.5419 18.7919 73.7596C18.8941 73.9774 18.945 74.2158 18.9405 74.4563C18.9391 74.7108 18.8759 74.9611 18.7563 75.1857C18.6473 75.035 18.515 74.9026 18.3645 74.7936C18.186 74.6631 17.9836 74.5691 17.7688 74.5169C17.554 74.4648 17.331 74.4556 17.1126 74.4899C16.8943 74.5241 16.6848 74.6011 16.4962 74.7165C16.3076 74.8318 16.1436 74.9833 16.0135 75.1621L16.0018 75.1857Z" fill="#320049"/>
<path d="M17.6556 76.2248C17.8894 76.191 18.1139 76.1103 18.3159 75.9877C18.5178 75.8651 18.693 75.703 18.8311 75.5112C18.8663 75.4641 18.9016 75.4092 18.9369 75.3543C19.1121 75.0541 19.1965 74.7094 19.1798 74.3621C19.1631 74.0147 19.046 73.6797 18.8427 73.3977C18.6394 73.1157 18.3587 72.8989 18.0346 72.7734C17.7106 72.648 17.3571 72.6194 17.0171 72.6912C16.6771 72.7629 16.3652 72.9319 16.1194 73.1776C15.8735 73.4232 15.7042 73.7351 15.632 74.0752C15.5597 74.4153 15.5878 74.7691 15.7126 75.0937C15.8374 75.4182 16.0537 75.6994 16.3351 75.9033C16.6392 76.128 17.0073 76.2489 17.3852 76.2484C17.4758 76.2479 17.5663 76.24 17.6556 76.2248ZM16.1196 73.5427C16.3156 73.2811 16.5883 73.0874 16.8997 72.9885C17.211 72.8896 17.5455 72.8905 17.8563 72.9912C18.1671 73.0919 18.4387 73.2872 18.6331 73.5499C18.8276 73.8126 18.9351 74.1295 18.9408 74.4564C18.9394 74.7108 18.8762 74.9612 18.7566 75.1857C18.6476 75.035 18.5154 74.9027 18.3648 74.7936C18.1863 74.6631 17.9839 74.5691 17.7691 74.517C17.5543 74.4649 17.3313 74.4557 17.1129 74.4899C16.8946 74.5242 16.6851 74.6012 16.4965 74.7165C16.3079 74.8319 16.1439 74.9833 16.0139 75.1622L15.9903 75.2014C15.8543 74.9406 15.7943 74.6468 15.8171 74.3535C15.84 74.0602 15.9448 73.7792 16.1196 73.5427Z" fill="#E29D34"/>
<path d="M15.8221 16.6063C15.7058 16.8169 15.6394 17.0514 15.6282 17.2918C15.6169 17.5321 15.6611 17.7718 15.7572 17.9923C15.8533 18.2129 15.9989 18.4083 16.1826 18.5635C16.3662 18.7188 16.5831 18.8296 16.8165 18.8875C17.0498 18.9455 17.2934 18.9489 17.5283 18.8975C17.7631 18.8462 17.9831 18.7414 18.171 18.5914C18.359 18.4414 18.5099 18.2501 18.6122 18.0324C18.7144 17.8146 18.7653 17.5762 18.7608 17.3357C18.7612 17.081 18.6979 16.8302 18.5766 16.6063C18.4697 16.7588 18.3371 16.8914 18.1848 16.9984C18.0063 17.1289 17.8039 17.2229 17.5891 17.2751C17.3743 17.3272 17.1513 17.3364 16.9329 17.3021C16.7146 17.2679 16.5051 17.1909 16.3165 17.0755C16.1279 16.9602 15.9639 16.8087 15.8339 16.6299L15.8221 16.6063Z" fill="#320049"/>
<path d="M17.1975 15.5438C16.8677 15.5431 16.5442 15.6339 16.2629 15.8061C15.9816 15.9784 15.7536 16.2253 15.6042 16.5195C15.4547 16.8137 15.3898 17.1436 15.4165 17.4726C15.4432 17.8015 15.5606 18.1166 15.7556 18.3828C15.893 18.5752 16.068 18.7378 16.2701 18.8604C16.4721 18.9831 16.697 19.0634 16.9311 19.0964C17.2641 19.1488 17.6051 19.1059 17.9148 18.9725C18.2244 18.8392 18.4901 18.6209 18.681 18.3429C18.872 18.0648 18.9804 17.7384 18.9938 17.4013C19.0073 17.0642 18.9252 16.7302 18.7569 16.4378C18.7217 16.3829 18.6903 16.328 18.6551 16.281C18.5164 16.0898 18.341 15.9282 18.1392 15.8056C17.9374 15.6831 17.7131 15.6021 17.4796 15.5673C17.3864 15.5517 17.292 15.5438 17.1975 15.5438ZM15.8222 16.6065L15.8457 16.6457C15.9757 16.8245 16.1397 16.976 16.3283 17.0913C16.5169 17.2067 16.7264 17.2837 16.9448 17.3179C17.1631 17.3522 17.3861 17.343 17.6009 17.2909C17.8157 17.2388 18.0182 17.1448 18.1966 17.0143C18.349 16.9073 18.4815 16.7746 18.5885 16.6221C18.7097 16.8461 18.773 17.0968 18.7726 17.3515C18.7771 17.592 18.7263 17.8304 18.624 18.0482C18.5218 18.2659 18.3708 18.4572 18.1829 18.6072C17.9949 18.7572 17.775 18.862 17.5401 18.9133C17.3052 18.9647 17.0617 18.9613 16.8283 18.9034C16.595 18.8454 16.3781 18.7346 16.1944 18.5793C16.0107 18.4241 15.8652 18.2287 15.7691 18.0081C15.6729 17.7876 15.6288 17.5479 15.64 17.3076C15.6513 17.0672 15.7176 16.8327 15.834 16.6221L15.8222 16.6065Z" fill="#E29D34"/>
<path d="M76.4521 74.28C76.5684 74.4906 76.6348 74.7251 76.646 74.9655C76.6573 75.2058 76.6132 75.4455 76.517 75.666C76.4209 75.8866 76.2754 76.082 76.0917 76.2372C75.908 76.3925 75.6911 76.5033 75.4577 76.5613C75.2244 76.6192 74.9809 76.6226 74.746 76.5712C74.5111 76.5199 74.2912 76.4151 74.1032 76.2651C73.9153 76.1151 73.7643 75.9238 73.662 75.7061C73.5598 75.4883 73.5089 75.2499 73.5135 75.0094C73.513 74.7547 73.5764 74.504 73.6976 74.28C73.8045 74.4325 73.9371 74.5652 74.0894 74.6722C74.2679 74.8027 74.4703 74.8967 74.6851 74.9488C74.9 75.0009 75.1229 75.0101 75.3413 74.9758C75.5597 74.9416 75.7691 74.8646 75.9577 74.7492C76.1463 74.6339 76.3103 74.4824 76.4404 74.3036L76.4521 74.28Z" fill="#320049"/>
<path d="M74.7945 73.2409C74.561 73.2757 74.3367 73.3567 74.1349 73.4792C73.933 73.6018 73.7577 73.7634 73.619 73.9546C73.5837 74.0016 73.5524 74.0565 73.5171 74.1114C73.3489 74.4038 73.2668 74.7378 73.2802 75.0749C73.2937 75.412 73.4021 75.7384 73.5931 76.0165C73.784 76.2945 74.0497 76.5128 74.3593 76.6461C74.669 76.7795 75.01 76.8224 75.343 76.77C75.5771 76.737 75.8019 76.6567 76.004 76.534C76.2061 76.4114 76.3811 76.2488 76.5185 76.0564C76.7422 75.7517 76.863 75.3836 76.8633 75.0055C76.8633 74.5312 76.6751 74.0764 76.34 73.7411C76.0049 73.4058 75.5504 73.2174 75.0766 73.2174C74.9821 73.2174 74.8877 73.2253 74.7945 73.2409ZM76.3343 75.923C76.1384 76.1846 75.8657 76.3784 75.5543 76.4773C75.243 76.5762 74.9085 76.5752 74.5977 76.4746C74.2869 76.3739 74.0153 76.1786 73.8209 75.9159C73.6264 75.6532 73.5189 75.3363 73.5132 75.0094C73.5128 74.7547 73.5761 74.504 73.6974 74.28C73.8043 74.4325 73.9369 74.5652 74.0892 74.6722C74.2677 74.8027 74.4701 74.8967 74.6849 74.9488C74.8997 75.0009 75.1227 75.0101 75.341 74.9758C75.5594 74.9416 75.7689 74.8646 75.9575 74.7492C76.1461 74.6339 76.3101 74.4824 76.4401 74.3036L76.4636 74.2644C76.5997 74.5251 76.6597 74.819 76.6368 75.1123C76.614 75.4056 76.5092 75.6865 76.3343 75.923Z" fill="#E29D34"/>
<path d="M73.6936 17.6064C73.5402 17.2949 73.4945 16.9413 73.5636 16.6011C73.6327 16.2608 73.8126 15.953 74.0752 15.7261C74.3378 15.4992 74.6683 15.3658 75.0147 15.3471C75.3612 15.3283 75.7041 15.4251 75.9897 15.6223C76.1888 15.7652 76.351 15.9536 76.4628 16.1718C76.5745 16.3901 76.6326 16.6319 76.6323 16.8771C76.6321 17.1312 76.5703 17.3815 76.452 17.6064C76.3438 17.4551 76.2114 17.3226 76.0602 17.2143C75.8819 17.0833 75.6795 16.9889 75.4646 16.9365C75.2497 16.8841 75.0266 16.8748 74.8081 16.909C74.5896 16.9433 74.38 17.0205 74.1914 17.1361C74.0028 17.2518 73.839 17.4036 73.7093 17.5829L73.6936 17.6064Z" fill="#320049"/>
<path d="M75.3515 18.6455C75.585 18.6108 75.8092 18.5298 76.0111 18.4072C76.2129 18.2847 76.3883 18.1231 76.527 17.9319C76.5641 17.8817 76.5981 17.8293 76.6288 17.775C76.7855 17.5032 76.8679 17.1949 76.8679 16.881C76.8678 16.5672 76.7851 16.259 76.6283 15.9872C76.4715 15.7155 76.2459 15.4899 75.9743 15.333C75.7028 15.1761 75.3947 15.0935 75.0811 15.0935C74.7676 15.0935 74.4595 15.1761 74.1879 15.333C73.9164 15.4899 73.6908 15.7155 73.534 15.9872C73.3771 16.259 73.2945 16.5672 73.2944 16.881C73.2943 17.1949 73.3768 17.5032 73.5334 17.775C73.6568 17.9913 73.8252 18.1785 74.0271 18.324C74.3324 18.5492 74.7019 18.6702 75.0811 18.669C75.1717 18.6684 75.2622 18.6606 75.3515 18.6455ZM73.8116 15.9634C74.0567 15.6308 74.4229 15.4084 74.8308 15.3446C75.2387 15.2807 75.6554 15.3805 75.9902 15.6222C76.1893 15.7651 76.3515 15.9535 76.4633 16.1718C76.575 16.39 76.6331 16.6318 76.6328 16.877C76.6326 17.1312 76.5708 17.3815 76.4525 17.6064C76.3443 17.455 76.2119 17.3225 76.0607 17.2143C75.8824 17.0833 75.68 16.9888 75.4651 16.9364C75.2502 16.884 75.0271 16.8747 74.8086 16.909C74.5901 16.9432 74.3805 17.0204 74.1919 17.1361C74.0033 17.2517 73.8395 17.4036 73.7098 17.5829L73.6823 17.6221C73.5463 17.3613 73.4863 17.0675 73.5091 16.7742C73.532 16.4809 73.6368 16.1999 73.8116 15.9634Z" fill="#E29D34"/>
<path fill-rule="evenodd" clip-rule="evenodd" d="M4.95285 7.70122L2.91509 10.8815L6.05 8.86701L6.92395 12.8896L7.80335 8.82996L10.873 10.7991L8.8537 7.66116L12.8875 6.78428L8.94937 5.93862L10.8808 2.91352L7.81104 4.89199C7.45164 3.23702 6.92395 0.812241 6.92395 0.812241L6.05827 4.85842L2.89941 2.83117L4.87651 5.91901L0.811523 6.79996L4.95285 7.70122Z" fill="#320049"/>
<path fill-rule="evenodd" clip-rule="evenodd" d="M4.60152 5.79887L0 6.79942L4.68342 7.81553L2.35091 11.4539L5.93473 9.14631L6.9235 13.6969L7.92085 9.1106L11.4373 11.3716L9.13764 7.79162L13.7138 6.79942L9.21783 5.82555L11.4529 2.35274L7.92553 4.61288L6.9235 0L5.92972 4.57554L2.3274 2.25863L4.60152 5.79887ZM4.8004 6.10847L1.61823 6.79942L4.8802 7.50858L5.28958 6.87L4.8004 6.10847ZM5.23689 7.58612L5.69707 6.87L5.15825 6.03077L6.00664 5.84656L6.16147 5.1327L6.95482 5.64266L7.68469 5.17334L7.83645 5.88185L8.65712 6.05627L8.13421 6.87L8.569 7.54599L7.87171 7.69738L7.68613 8.55154L6.95482 8.08167L6.16622 8.58818L5.98313 7.74836L5.23689 7.58612ZM5.03979 7.89285L3.4872 10.3089L5.85666 8.78701L5.69318 8.03461L5.03979 7.89285ZM6.24443 8.9469L6.9235 12.0617L7.60833 8.90966L6.95482 8.48947L6.24443 8.9469ZM7.99874 8.7524L10.2931 10.2266L8.77725 7.86976L8.16166 8.00324L7.99874 8.7524ZM8.92956 7.46771L12.0799 6.78373L9.01974 6.13334L8.54562 6.87L8.92956 7.46771ZM8.85578 5.74713L10.3088 3.48598L8.00284 4.96877L8.13815 5.59168L8.85578 5.74713ZM7.6082 4.81621L6.9235 1.61947L6.23916 4.77455L6.95482 5.23485L7.6082 4.81621ZM5.85192 4.93373L5.71669 5.55639L4.9594 5.72105L3.47152 3.40363L5.85192 4.93373Z" fill="#E29D34"/>
<path d="M84.2066 86.7886L85.1234 91.1608L86.0403 86.7886L88.2032 88.2003L86.7926 86.0397L91.1614 85.1221L86.7926 84.2045L88.2032 82.04L86.0403 83.4517L85.1234 79.0834C85.1234 79.0834 84.571 81.7067 84.2066 83.4517L82.0437 82.04L83.4543 84.2045L79.0854 85.1221L83.4582 86.0397L82.0476 88.2003L84.2066 86.7886Z" fill="#320049"/>
<path d="M78.2471 85.1222L83.1723 84.087L81.4522 81.448L84.0891 83.1733L85.1236 78.2443L86.158 83.1733L88.7949 81.448L87.0748 84.087L92 85.1222L87.0748 86.1574L88.7949 88.7925L86.158 87.071L85.1236 92L84.0891 87.071L81.4522 88.7925L83.1723 86.1574L78.2471 85.1222ZM83.7326 84.3379L79.9162 85.1222L83.7326 85.9064L82.6316 87.5926L84.3203 86.4946L85.104 90.306L85.9072 86.4946L87.592 87.5926L86.491 85.9064L90.3074 85.1222L86.491 84.3379L87.592 82.6479L85.9072 83.7497L85.104 79.9344L84.3203 83.7497L82.6316 82.6479L83.7326 84.3379Z" fill="#E29D34"/>
<circle cx="46.5" cy="45.5" r="30.5" fill="white"/>
<path d="M55.9758 42.701C57.0543 41.6225 57.0543 39.8675 55.9758 38.7889C55.4532 38.2665 54.7586 37.9787 54.0198 37.9787C53.281 37.9787 52.5861 38.2665 52.0637 38.789L28.9516 61.9009C28.8319 62.0206 28.7647 62.183 28.7647 62.3523C28.7647 62.5215 28.8319 62.6839 28.9516 62.8036L31.961 65.8129C32.0856 65.9375 32.249 65.9999 32.4124 65.9999C32.5757 65.9999 32.7391 65.9376 32.8638 65.8129L55.9758 42.701ZM52.9664 39.6917C53.2478 39.4103 53.6218 39.2553 54.0198 39.2553C54.4176 39.2553 54.7917 39.4103 55.073 39.6916C55.6539 40.2724 55.6539 41.2174 55.073 41.7983L52.1291 44.7422L50.0225 42.6356L52.9664 39.6917ZM32.4124 64.4591L30.3056 62.3523L49.1197 43.5384L51.2263 45.645L32.4124 64.4591Z" fill="#320049"/>
<path d="M59.5301 30.0238C59.4046 29.8677 59.2136 29.7791 59.0129 29.7856C58.8127 29.7918 58.627 29.8916 58.5113 30.0551C58.3005 30.3533 57.9247 30.8849 57.5879 31.361C57.0226 29.9454 55.9791 27.7404 54.4776 26.1937C54.3574 26.0699 54.1922 26 54.0197 26C53.8472 26 53.6819 26.0699 53.5616 26.1937C52.0605 27.74 51.0168 29.9455 50.4514 31.3611C50.1146 30.8849 49.7387 30.3534 49.5279 30.0551C49.4123 29.8916 49.2266 29.7918 49.0263 29.7856C48.8239 29.7803 48.6345 29.8677 48.5091 30.0238C48.3594 30.2101 44.8422 34.6435 44.804 39.573C44.7963 40.5626 44.9346 41.5466 45.215 42.4978C45.3147 42.8359 45.6695 43.0291 46.0077 42.9295C46.3459 42.8299 46.5391 42.475 46.4395 42.1369C46.1946 41.3061 46.0738 40.4469 46.0805 39.583C46.1069 36.1758 48.0547 32.9079 49.0004 31.5205L50.0409 32.9915C50.2878 33.3401 50.574 33.4455 50.891 33.3044C51.0477 33.2348 51.1698 33.105 51.2297 32.9443C51.2326 32.9367 51.24 32.9153 51.2515 32.8811C51.5213 32.0729 52.467 29.4725 54.0195 27.5954C55.5726 29.4731 56.518 32.0734 56.7877 32.8816C56.799 32.9153 56.8063 32.9363 56.8091 32.9439C56.8689 33.1048 56.9912 33.2347 57.148 33.3044C57.4653 33.4455 57.7512 33.3401 57.9981 32.9915L59.0391 31.5197C59.9849 32.9049 61.9319 36.1677 61.9584 39.583C61.976 41.8531 61.1236 44.0243 59.6198 45.5398C58.189 46.9817 56.2525 47.7438 54.0194 47.7438C53.7156 47.7438 53.4097 47.7292 53.1105 47.7003C52.759 47.6669 52.4476 47.9233 52.4137 48.2742C52.3798 48.6251 52.6367 48.9371 52.9876 48.971C53.3275 49.0038 53.6746 49.0205 54.0193 49.0205C56.6002 49.0205 58.8501 48.1279 60.5259 46.4391C62.2678 44.6837 63.2551 42.1811 63.2349 39.5731C63.197 34.6435 59.6798 30.2101 59.5301 30.0238Z" fill="#320049"/>
</svg>
